Coordinates
version=1
nRows=17
nColumns=40
inDegrees=yes

Units are S.I. units (second, meters, Newtons, ...)
If the header above contains a line with 'inDegrees', this indicates whether rotational values are in degrees (yes) or radians (no).

endheader
time	pelvis_tilt	pelvis_list	pelvis_rotation	pelvis_tx	pelvis_ty	pelvis_tz	hip_flexion_r	hip_adduction_r	hip_rotation_r	knee_angle_r	knee_angle_r_beta	ankle_angle_r	subtalar_angle_r	mtp_angle_r	hip_flexion_l	hip_adduction_l	hip_rotation_l	knee_angle_l	knee_angle_l_beta	ankle_angle_l	subtalar_angle_l	mtp_angle_l	lumbar_extension	lumbar_bending	lumbar_rotation	arm_flex_r	arm_add_r	arm_rot_r	elbow_flex_r	pro_sup_r	wrist_flex_r	wrist_dev_r	arm_flex_l	arm_add_l	arm_rot_l	elbow_flex_l	pro_sup_l	wrist_flex_l	wrist_dev_l
      5.76000000	     37.92699575	      4.58485249	   -175.94931645	      0.40559963	      0.80577187	     -0.61125985	     67.19420407	     -9.76006600	    -16.57055298	     28.16566135	      0.49158353	     -0.51004515	      0.00000000	      0.00000000	     69.55272258	     -5.79426298	      0.62434782	     26.40580683	      0.46086827	     -5.51909550	      0.00000000	      0.00000000	    -13.43223750	     11.41721645	      4.27338204	     44.16264079	    -15.90549035	     66.03349737	      1.81881206	     87.24581400	      0.00000000	      0.00000000	     34.13260683	     -3.04808235	     87.19553476	      0.60141729	      2.69846343	      0.00000000	      0.00000000
      5.76500000	     37.72570608	      4.62582347	   -175.92358871	      0.40492129	      0.80613632	     -0.61147670	     66.98213727	     -9.71379352	    -16.50539847	     28.24537120	      0.49297473	     -0.51821888	      0.00000000	      0.00000000	     69.34690758	     -5.83056261	      0.66384650	     26.45294161	      0.46169093	     -5.52581060	      0.00000000	      0.00000000	    -13.02856946	     11.41060741	      4.23782195	     43.75032283	    -15.90033107	     66.04101105	      1.79982920	     87.26098622	      0.00000000	      0.00000000	     33.87303938	     -3.10159379	     87.17747815	      0.60821634	      2.70237061	      0.00000000	      0.00000000
      5.77000000	     37.40665442	      4.73238055	   -175.81605318	      0.40407205	      0.80662415	     -0.61154532	     66.68319905	     -9.70064896	    -16.38578176	     28.50424914	      0.49749300	     -0.31478184	      0.00000000	      0.00000000	     69.06729876	     -5.83872114	      0.82670731	     26.59648412	      0.46419622	     -5.38036980	      0.00000000	      0.00000000	    -12.75916820	     11.51750280	      4.10917883	     43.41109377	    -15.90547971	     66.07417791	      1.83924275	     87.24736083	      0.00000000	      0.00000000	     33.49114266	     -3.16930514	     87.24226722	      0.60599962	      2.72215049	      0.00000000	      0.00000000
      5.77500000	     36.95563416	      4.88282496	   -175.49356871	      0.40296837	      0.80719210	     -0.61117272	     66.19743112	     -9.95246571	    -16.81951237	     28.81732899	      0.50295727	      0.23013286	      0.00000000	      0.00000000	     68.68466212	     -5.70992602	      0.95664666	     26.83920420	      0.46843248	     -4.98715563	      0.00000000	      0.00000000	    -12.54018709	     11.72823195	      3.79536156	     43.01496378	    -15.89098068	     66.36923476	      1.85262700	     87.21591853	      0.00000000	      0.00000000	     33.23041047	     -3.23117651	     87.44019893	      0.61241381	      2.76357053	      0.00000000	      0.00000000
      5.78000000	     36.78026044	      4.92792782	   -175.45408790	      0.40230692	      0.80754808	     -0.61147793	     65.99739110	     -9.91151143	    -16.79340621	     28.87346858	      0.50393709	      0.20132114	      0.00000000	      0.00000000	     68.49850880	     -5.76826225	      0.95930968	     26.87206986	      0.46900610	     -5.01202345	      0.00000000	      0.00000000	    -12.10901150	     11.69770337	      3.73004268	     42.60622399	    -15.85306545	     66.39079490	      1.84497360	     87.23415984	      0.00000000	      0.00000000	     33.06307706	     -3.29349923	     87.42297391	      0.61470920	      2.76430334	      0.00000000	      0.00000000
      5.78500000	     35.99805215	      5.82140411	   -175.02093217	      0.40059739	      0.80849951	     -0.61150888	     64.89931323	     -9.74807125	    -18.00130953	     28.97291620	      0.50567278	      0.62511677	      0.00000000	      0.00000000	     67.97085331	     -5.83680338	      2.46008510	     27.16371192	      0.47409621	     -4.58949150	      0.00000000	      0.00000000	    -12.20210007	     12.73428613	      3.44948442	     42.32379950	    -15.92738137	     67.23086122	      1.88369708	     87.12599081	      0.00000000	      0.00000000	     32.67423740	     -3.33776064	     87.53391074	      0.61970357	      2.80054353	      0.00000000	      0.00000000
      5.79000000	     35.74919874	      5.85775797	   -175.18002458	      0.39954848	      0.80883604	     -0.61230369	     64.68865230	     -9.50983345	    -17.86764727	     29.17349867	      0.50917361	      0.69271053	      0.00000000	      0.00000000	     67.64656861	     -5.95396445	      3.11976111	     27.21585960	      0.47500636	     -4.43456703	      0.00000000	      0.00000000	    -11.86508855	     12.69713306	      3.51360049	     41.94248762	    -15.81738049	     67.30737504	      1.86453756	     87.12452612	      0.00000000	      0.00000000	     32.34058279	     -3.49508344	     87.50621484	      0.62525410	      2.80823624	      0.00000000	      0.00000000
      5.79500000	     35.55215721	      5.91905830	   -175.14071253	      0.39873986	      0.80915503	     -0.61250266	     64.45373941	     -9.45874612	    -17.84656042	     29.23224599	      0.51019894	      0.71049555	      0.00000000	      0.00000000	     67.44244179	     -6.01675513	      3.17153659	     27.27141549	      0.47597599	     -4.39611319	      0.00000000	      0.00000000	    -11.41672518	     12.64632644	      3.46095876	     41.49382158	    -15.79646310	     67.33642926	      1.85960483	     87.13676917	      0.00000000	      0.00000000	     32.07327959	     -3.53429541	     87.50065835	      0.63555956	      2.81547636	      0.00000000	      0.00000000
      5.80000000	     35.30152833	      5.97079876	   -175.12466019	      0.39776569	      0.80958311	     -0.61266098	     64.16524371	     -9.39935493	    -17.81394480	     29.33703874	      0.51202792	      0.79306337	      0.00000000	      0.00000000	     67.19199310	     -6.08243121	      3.26401661	     27.36723692	      0.47764839	     -4.28922910	      0.00000000	      0.00000000	    -11.04005257	     12.68503574	      3.34650913	     41.12771117	    -15.73338973	     67.42467120	      1.87932894	     87.14425121	      0.00000000	      0.00000000	     31.71473459	     -3.60947501	     87.50564973	      0.63726576	      2.82840027	      0.00000000	      0.00000000
      5.80500000	     34.84238230	      6.13657734	   -174.89683137	      0.39656010	      0.81013733	     -0.61263741	     63.62843123	     -9.44207230	    -18.01446436	     29.53336415	      0.51545444	      1.31049431	      0.00000000	      0.00000000	     66.85516466	     -6.07742968	      3.40753288	     27.70943029	      0.48362079	     -3.78260745	      0.00000000	      0.00000000	    -10.83370429	     12.85068457	      3.04550383	     40.79382371	    -15.67268527	     67.83047771	      1.88485528	     87.10395850	      0.00000000	      0.00000000	     31.41343668	     -3.78391151	     87.60441564	      0.63804090	      2.86956257	      0.00000000	      0.00000000
      5.81000000	     34.64367735	      6.16068355	   -174.88531545	      0.39562550	      0.81044449	     -0.61288449	     63.38754125	     -9.39850232	    -18.04375329	     29.58759471	      0.51640095	      1.30956704	      0.00000000	      0.00000000	     66.63580901	     -6.13621596	      3.46960335	     27.76162513	      0.48453176	     -3.79745672	      0.00000000	      0.00000000	    -10.36788188	     12.75567130	      3.03728160	     40.29812579	    -15.66652689	     67.87516868	      1.86136905	     87.12030023	      0.00000000	      0.00000000	     31.14071266	     -3.83239111	     87.58432674	      0.64780133	      2.87561236	      0.00000000	      0.00000000
      5.81500000	     34.42163096	      6.15903582	   -174.90465245	      0.39464019	      0.81084389	     -0.61312351	     63.12759601	     -9.34893085	    -18.07883004	     29.66976948	      0.51783517	      1.37274768	      0.00000000	      0.00000000	     66.38652962	     -6.20546117	      3.54881703	     27.85816350	      0.48621668	     -3.75368705	      0.00000000	      0.00000000	     -9.95291073	     12.67498466	      2.96298421	     39.89353370	    -15.63522630	     67.94623547	      1.87372682	     87.12235240	      0.00000000	      0.00000000	     30.77955026	     -3.89152414	     87.57814024	      0.65260158	      2.88792442	      0.00000000	      0.00000000
      5.82000000	     34.19608423	      6.20379956	   -174.67379365	      0.39376736	      0.81133280	     -0.61273158	     62.80975510	     -9.50600582	    -18.18427558	     29.73071059	      0.51889879	      1.53974553	      0.00000000	      0.00000000	     66.20512883	     -6.21405229	      2.98475462	     27.97313918	      0.48822338	     -3.64905366	      0.00000000	      0.00000000	     -9.49007017	     12.70192767	      2.60436898	     39.51750584	    -15.57460808	     68.10159969	      1.91609769	     87.11165850	      0.00000000	      0.00000000	     30.42713607	     -3.95588098	     87.60213244	      0.64620314	      2.90655467	      0.00000000	      0.00000000
      5.82500000	     33.75460083	      5.97456356	   -174.48739275	      0.39237410	      0.81202871	     -0.61223505	     62.37064963	     -9.86874566	    -18.33462754	     30.08092277	      0.52501114	      2.01478692	      0.00000000	      0.00000000	     65.74220426	     -6.05296216	      2.51899494	     28.26447248	      0.49330811	     -3.46997464	      0.00000000	      0.00000000	     -9.27684175	     12.49898004	      2.24958303	     39.18185012	    -15.51242728	     68.83962153	      1.89124860	     87.01668170	      0.00000000	      0.00000000	     30.08743418	     -4.09538965	     87.61715971	      0.65252766	      2.94664251	      0.00000000	      0.00000000
      5.83000000	     33.59099298	      5.98175159	   -174.48672679	      0.39146197	      0.81246315	     -0.61238955	     62.14657156	     -9.82555264	    -18.32765483	     30.10971548	      0.52551367	      2.00588752	      0.00000000	      0.00000000	     65.53116112	     -6.11705104	      2.49939615	     28.28541198	      0.49367357	     -3.45414404	      0.00000000	      0.00000000	     -8.78831693	     12.41088661	      2.14622783	     38.77312753	    -15.45453239	     68.88152411	      1.90770480	     87.02545414	      0.00000000	      0.00000000	     29.76372968	     -4.18038535	     87.58392446	      0.65672506	      2.94924839	      0.00000000	      0.00000000
      5.83500000	     33.37094141	      5.94611635	   -174.61782753	      0.39031520	      0.81287045	     -0.61287565	     61.87839808	     -9.68201618	    -18.30145198	     30.15924539	      0.52637813	      2.07859821	      0.00000000	      0.00000000	     65.19772677	     -6.20347427	      2.79720349	     28.32097170	      0.49429420	     -3.28630332	      0.00000000	      0.00000000	     -8.39012705	     12.24524847	      2.10214201	     38.38076684	    -15.33432785	     68.93670058	      1.93697483	     87.00756662	      0.00000000	      0.00000000	     29.37000547	     -4.32427872	     87.55342473	      0.65392691	      2.95238739	      0.00000000	      0.00000000
      5.84000000	     33.04599789	      6.06345254	   -174.75935130	      0.38893883	      0.81348971	     -0.61355402	     61.43116250	     -9.34186357	    -18.22894022	     30.12379465	      0.52575940	      2.34360815	      0.00000000	      0.00000000	     64.70490548	     -6.35354640	      3.51834980	     28.25247256	      0.49309867	     -2.65296130	      0.00000000	      0.00000000	     -8.07937121	     12.19948197	      2.16745541	     37.94749264	    -15.23226796	     68.99798025	      1.92727100	     86.93690226	      0.00000000	      0.00000000	     29.08849182	     -4.45405777	     87.58357757	      0.66078700	      2.96383891	      0.00000000	      0.00000000
